<svg xmlns="http://www.w3.org/2000/svg" viewBox="0 0 640 450" role="img" aria-labelledby="traderTitle">
  <title id="traderTitle">South African township trader scene</title>
  <defs>
    <linearGradient id="bg2" x1="0" x2="1" y1="0" y2="1">
      <stop offset="0%" stop-color="#111827" />
      <stop offset="100%" stop-color="#0f172a" />
    </linearGradient>
    <linearGradient id="accent2" x1="0" x2="1" y1="0" y2="1">
      <stop offset="0%" stop-color="#fbbf24" />
      <stop offset="100%" stop-color="#f97316" />
    </linearGradient>
  </defs>
  <rect width="640" height="450" rx="32" fill="url(#bg2)" />
  <rect x="32" y="32" width="576" height="146" rx="24" fill="#1e293b" />
  <rect x="54" y="52" width="210" height="20" rx="10" fill="#f8fafc" />
  <rect x="54" y="82" width="120" height="14" rx="7" fill="#94a3b8" />
  <rect x="56" y="118" width="520" height="10" rx="5" fill="#334155" />
  <rect x="56" y="140" width="520" height="10" rx="5" fill="#334155" />
  <rect x="58" y="170" width="160" height="10" rx="5" fill="#475569" />
  <rect x="420" y="170" width="160" height="10" rx="5" fill="#475569" />
  <rect x="64" y="210" width="180" height="180" rx="28" fill="#0f172a" />
  <rect x="110" y="220" width="90" height="120" rx="24" fill="#475569" />
  <rect x="134" y="232" width="40" height="30" rx="12" fill="#fbbf24" />
  <path d="M184 280 c24 22 38 48 38 78" stroke="#f97316" stroke-width="18" stroke-linecap="round" fill="none" />
  <rect x="280" y="210" width="180" height="180" rx="28" fill="#0f172a" />
  <rect x="280" y="240" width="90" height="120" rx="24" fill="#334155" />
  <path d="M320 290 c24 -20 52 -28 82 -26" stroke="#fbbf24" stroke-width="16" stroke-linecap="round" fill="none" />
  <rect x="500" y="212" width="84" height="124" rx="20" fill="#475569" />
  <rect x="520" y="248" width="40" height="28" rx="10" fill="#fbbf24" />
  <rect x="64" y="398" width="512" height="34" rx="16" fill="#111827" />
  <ellipse cx="358" cy="120" rx="52" ry="30" fill="#fbbf24" opacity="0.9" />
  <ellipse cx="360" cy="136" rx="52" ry="16" fill="#f97316" opacity="0.85" />
</svg>
