<svg xmlns="http://www.w3.org/2000/svg" viewBox="0 0 640 450" role="img" aria-labelledby="analyticsTitle">
  <title id="analyticsTitle">AgriScan analytics dashboard</title>
  <defs>
    <linearGradient id="bg" x1="0" x2="1" y1="0" y2="1">
      <stop offset="0%" stop-color="#0f172a" />
      <stop offset="100%" stop-color="#111827" />
    </linearGradient>
    <linearGradient id="accent" x1="0" x2="1" y1="0" y2="1">
      <stop offset="0%" stop-color="#38bdf8" />
      <stop offset="100%" stop-color="#0284c7" />
    </linearGradient>
  </defs>
  <rect width="640" height="450" rx="32" fill="url(#bg)" />
  <rect x="34" y="34" width="110" height="24" rx="12" fill="#1e293b" />
  <rect x="34" y="70" width="230" height="18" rx="9" fill="#334155" />
  <rect x="34" y="100" width="240" height="18" rx="9" fill="#334155" />
  <rect x="34" y="144" width="190" height="14" rx="7" fill="#475569" />
  <rect x="34" y="174" width="260" height="14" rx="7" fill="#475569" />
  <rect x="34" y="220" width="570" height="180" rx="24" fill="#0f172a" stroke="#475569" stroke-width="2" />
  <path d="M70 290 L160 250 L230 270 L300 210 L380 240 L450 200 L520 225" fill="none" stroke="url(#accent)" stroke-width="12" stroke-linecap="round" stroke-linejoin="round" />
  <circle cx="70" cy="286" r="11" fill="#38bdf8" />
  <circle cx="160" cy="246" r="11" fill="#38bdf8" />
  <circle cx="230" cy="266" r="11" fill="#38bdf8" />
  <circle cx="300" cy="206" r="11" fill="#38bdf8" />
  <circle cx="380" cy="236" r="11" fill="#38bdf8" />
  <circle cx="450" cy="196" r="11" fill="#38bdf8" />
  <circle cx="520" cy="221" r="11" fill="#38bdf8" />
  <rect x="310" y="52" width="260" height="48" rx="16" fill="#0f172a" stroke="#334155" stroke-width="2" />
  <rect x="330" y="70" width="140" height="12" rx="6" fill="#38bdf8" />
  <rect x="330" y="94" width="80" height="10" rx="5" fill="#94a3b8" />
  <rect x="310" y="115" width="260" height="72" rx="16" fill="#0f172a" stroke="#334155" stroke-width="2" />
  <rect x="330" y="135" width="60" height="10" rx="5" fill="#38bdf8" />
  <rect x="330" y="155" width="100" height="10" rx="5" fill="#94a3b8" />
  <rect x="330" y="175" width="160" height="10" rx="5" fill="#94a3b8" />
</svg>
