<svg xmlns="http://www.w3.org/2000/svg" xmlns:xlink="http://www.w3.org/1999/xlink" width="608" zoomAndPan="magnify" viewBox="0 0 456 455.999984" height="608" preserveAspectRatio="xMidYMid meet" version="1.0"><rect x="-45.6" width="547.2" fill="#ffffff" y="-45.599998" height="547.19998" fill-opacity="1"/><path fill="#03ccac" d="M 285.460938 161.054688 C 243.820312 161.054688 205.945312 148.210938 175.941406 123.921875 C 146.242188 99.875 124.273438 64.59375 112.292969 21.761719 C 123.09375 17.152344 129.648438 14.152344 140.359375 8.910156 C 163.660156 85.078125 219.195312 128.65625 293.273438 128.65625 C 305.976562 128.65625 319.21875 127.347656 332.695312 124.761719 C 333.046875 136.378906 333.472656 143.804688 334.460938 155.585938 C 317.757812 159.21875 301.289062 161.054688 285.460938 161.054688 " fill-opacity="1" fill-rule="nonzero"/><path fill="#03ccac" d="M 282.933594 60.359375 C 272.558594 77.585938 250.183594 83.136719 232.960938 72.761719 C 215.734375 62.390625 210.183594 40.011719 220.558594 22.789062 C 230.933594 5.566406 253.308594 0.0117188 270.53125 10.386719 C 287.757812 20.765625 293.308594 43.136719 282.933594 60.359375 " fill-opacity="1" fill-rule="nonzero"/><path fill="#8669fb" d="M 21.761719 343.074219 C 17.15625 332.28125 14.160156 325.726562 8.910156 315.003906 C 98.269531 287.621094 142.332031 214.472656 124.761719 122.671875 C 136.375 122.320312 143.804688 121.886719 155.585938 120.902344 C 166.980469 173.308594 160.515625 221.691406 136.835938 261.003906 C 113.160156 300.304688 73.410156 328.640625 21.761719 343.074219 " fill-opacity="1" fill-rule="nonzero"/><path fill="#8669fb" d="M 60.363281 172.429688 C 77.585938 182.804688 83.140625 205.183594 72.761719 222.40625 C 62.386719 239.628906 40.015625 245.179688 22.789062 234.808594 C 5.566406 224.429688 0.0117188 202.058594 10.386719 184.832031 C 20.761719 167.605469 43.136719 162.054688 60.363281 172.429688 " fill-opacity="1" fill-rule="nonzero"/><path fill="#fc486b" d="M 315.007812 446.453125 C 291.707031 370.285156 236.167969 326.710938 162.09375 326.710938 C 149.386719 326.710938 136.148438 328.015625 122.671875 330.601562 C 122.316406 318.972656 121.886719 311.546875 120.902344 299.777344 C 137.605469 296.148438 154.074219 294.308594 169.902344 294.308594 C 211.546875 294.308594 249.417969 307.152344 279.421875 331.441406 C 309.121094 355.488281 331.089844 390.773438 343.074219 433.601562 C 332.285156 438.207031 325.726562 441.207031 315.007812 446.453125 " fill-opacity="1" fill-rule="nonzero"/><path fill="#fc486b" d="M 172.429688 395.003906 C 182.804688 377.777344 205.179688 372.226562 222.40625 382.601562 C 239.628906 392.976562 245.179688 415.351562 234.808594 432.574219 C 224.429688 449.796875 202.058594 455.351562 184.832031 444.976562 C 167.609375 434.601562 162.054688 412.226562 172.429688 395.003906 " fill-opacity="1" fill-rule="nonzero"/><path fill="#f6ce17" d="M 299.777344 334.460938 C 288.386719 282.058594 294.847656 233.671875 318.527344 194.363281 C 342.203125 155.0625 381.953125 126.722656 433.601562 112.292969 C 438.210938 123.101562 441.214844 129.65625 446.453125 140.359375 C 357.09375 167.746094 313.03125 240.890625 330.601562 332.695312 C 318.988281 333.046875 311.558594 333.476562 299.777344 334.460938 " fill-opacity="1" fill-rule="nonzero"/><path fill="#f6ce17" d="M 395.003906 282.933594 C 377.777344 272.558594 372.226562 250.183594 382.601562 232.960938 C 392.976562 215.738281 415.351562 210.183594 432.574219 220.554688 C 449.796875 230.933594 455.351562 253.308594 444.976562 270.53125 C 434.601562 287.757812 412.226562 293.308594 395.003906 282.933594 " fill-opacity="1" fill-rule="nonzero"/></svg>
